<svg   xmlns="http://www.w3.org/2000/svg" viewBox="0 0 800 800">
  <path
     d="m 646.09336,797.86011 c 22.36915,-22.3989 44.04735,-43.75784 65.38009,-65.51676 41.71544,-42.5579 36.87887,-90.63552 -12.9551,-124.63384 -40.16083,-27.35865 -80.32165,-54.7973 -121.69162,-80.39603 -46.46564,-28.71858 -89.21748,-18.71907 -117.63234,25.59873 -10.70956,16.71918 -20.1236,34.15832 -30.05585,51.19747 -90.85846,-42.07792 -173.08019,-121.19401 -220.92771,-203.66993 19.69176,-10.0795 39.90172,-19.35904 58.90254,-30.3985 44.39282,-25.75872 55.10238,-63.51686 26.42841,-104.39484 -31.26498,-44.55779 -65.72556,-87.27568 -99.7543,-130.23356 -13.04147,-16.47918 -33.42417,-23.11886 -65.12099,-25.03876 0,-20.39899 -2.59102,-41.19796 0.60457,-61.19697 4.66384,-29.35855 31.17862,-48.8775899 63.22091,-48.8775899 180.33505,-0.31998 360.58374,-0.39998 540.91879,-0.15999 39.64262,0.08 66.41651,28.0786099 66.41651,67.8366499 0.17273,85.43577 0.0864,170.79155 0.0864,256.14733 v 380.22121 c 0,10.87946 0.34547,21.75892 -0.34547,32.63839 -2.59102,39.83803 -28.67396,62.6369 -71.59854,62.7169 -25.82384,0.08 -51.64768,-0.08 -77.47153,-0.16 -1.0364,0.08 -1.98644,-0.71996 -4.40473,-1.67991 z M 488.30019,445.07754 c 53.20229,0 106.49096,0.08 159.69325,0 11.74596,0 24.78743,-1.67991 23.75103,-15.35924 -0.95005,-12.39938 -13.38695,-15.03925 -25.39201,-14.55928 -8.7231,0.31999 -17.53257,1.59992 -26.25568,1.51993 -43.09731,-0.31999 -86.10826,-1.19994 -129.20557,-1.43993 -53.54777,-0.23999 -107.1819,0 -160.72966,0.15999 -10.70956,0.08 -22.54189,0.63997 -23.23283,13.99931 -0.7773,13.43934 10.10499,15.59923 21.50548,15.59923 53.28866,0.15999 106.57732,0.08 159.86599,0.08 z m 35.15151,-275.26639 126.52819,0.08 c 11.14139,0 21.16,-2.71987 21.16,-14.39929 0,-12.95936 -11.48686,-14.79927 -22.71461,-14.79927 l -249.51531,0.08 c -11.57323,0 -22.02368,1.83991 -21.50548,15.35924 0.43184,12.47938 10.36409,13.75932 21.24637,13.67932 41.54271,-0.15999 83.17177,0 124.80084,0 z m -1.55461,130.55355 c 42.14727,0.08 84.38091,0 126.52819,0.15999 11.57322,0.08 22.71461,-1.91991 22.62825,-14.63928 -0.0864,-12.79936 -11.74596,-14.55928 -22.88735,-14.63927 l -249.51532,0.08 c -10.79592,0 -20.9009,1.51993 -21.24637,13.99931 -0.43183,13.43934 9.75951,15.19925 21.50548,15.11925 40.93813,-0.23998 81.96262,-0.08 122.98712,-0.08 z m 12.4369,496.93544 C 480.87259,792.90035 428.27487,773.22133 379.21821,746.18266 245.08969,672.18632 137.56233,572.91123 56.80884,449.07735 30.898631,409.39931 11.29324,367.0014 2.7428708,321.00368 -5.4620287,276.52588 3.8656465,236.84784 42.644593,205.88937 62.249984,190.29014 80.38713,173.17098 100.07889,157.81174 c 27.89666,-21.83892 53.63413,-19.51903 75.31234,7.67962 29.19217,36.71819 57.60703,73.99635 85.07185,111.83448 21.93731,30.15851 16.4098,49.83753 -17.87804,68.23662 -17.70531,9.51953 -36.44703,17.19915 -54.84328,25.59874 -22.71461,10.47948 -27.81029,22.2389 -13.47331,41.43795 24.01013,32.07841 48.62483,63.91684 75.83055,93.67537 45.42923,49.59755 98.37243,91.67547 158.57048,125.5138 29.71037,16.71917 38.69258,14.23929 53.89323,-14.87927 7.9458,-15.11925 15.97796,-30.2385 25.04654,-44.71779 19.77812,-31.51844 39.81535,-36.63819 72.20311,-16.39919 40.33356,25.19876 79.54434,51.91744 118.92786,78.31613 6.04572,4.0798 11.40049,9.43954 15.71886,15.19925 13.21421,17.75912 13.38694,36.31821 -1.81371,52.5574 -21.85095,23.43884 -44.56556,46.23772 -68.23022,68.15663 -23.14645,21.67893 -53.63413,27.03867 -90.08116,27.27866 z M 127.11187,586.11057 c 85.07186,86.39573 175.84396,159.67211 289.41704,212.38951 -7.51396,0.71996 -11.05502,1.43993 -14.68245,1.43993 -67.45291,0.08 -134.90582,0.08 -202.35874,0 -45.08376,-0.08 -72.37585,-25.35875 -72.37585,-66.7967 z"
     fill="white" />
</svg>
