<svg   xmlns="http://www.w3.org/2000/svg" viewBox="0 0 800 800">
  <path
     d="m 789.24301,317.39123 -87.95744,-72.39666 c 0.91432,-2.88731 1.18862,-6.41625 1.09719,-9.83825 -0.0914,-25.02337 0,-50.15367 0,-75.17704 0,-25.02337 0.0914,-50.15368 0,-75.177048 -0.0914,-13.901871 -3.56585,-18.286308 -15.36055,-18.286308 -28.06958,-0.106937 -56.23059,-0.106937 -84.30016,0 -11.61185,0.106938 -15.17769,4.491374 -15.26912,18.500183 L 587.3615,151.31734 413.3667,8.0211289 c -12.89189,-10.58681 -13.89764,-10.693747 -26.51523,-0.320813 L 164.3978,190.88421 C 112.92167,233.23145 61.262678,275.68562 9.6951189,318.24673 c -10.42323026,8.555 -12.2518671,14.86431 -6.4002292,24.8095 16.8234593,28.65924 33.7383503,57.21154 50.9275363,85.44304 2.377228,3.84974 6.583093,6.09543 10.331798,9.51743 4.754456,-3.20812 8.686025,-5.56075 12.251867,-8.44806 l 18.652098,-15.399 c -0.731454,2.88732 -1.097182,6.09544 -1.097182,9.62438 0.182864,117.73815 0.09143,235.58324 0.182864,353.3214 0,18.60712 3.565842,22.88462 19.200689,22.88462 h 190.0868 c 16.18343,0 18.92639,-3.422 18.92639,-22.67075 V 500.00006 h 154.42838 v 278.82636 c 0,17.21693 3.29155,21.17362 17.55491,21.17362 h 191.00112 c 14.17194,0 17.82921,-4.38444 17.82921,-20.95975 0,-119.55609 -0.0914,-239.11218 0.0914,-358.56133 0,-2.67344 -0.27429,-5.02607 -0.64002,-7.27175 l 20.29787,16.78918 c 11.88614,9.83825 16.54916,8.76887 24.77803,-5.02606 L 793.906,347.97535 c 9.14318,-15.18512 8.3203,-19.89037 -4.66302,-30.58412 z"
     fill="white"
     />
</svg>
