<svg   xmlns="http://www.w3.org/2000/svg" viewBox="0 0 800 800">
  <path
     d="m 746.15277,90.59536 h -28.48764 v 574.65433 c 0,38.12136 -37.98353,69.29494 -84.68091,69.29494 H 113.05683 v 21.30042 c 0,24.40864 24.24243,44.15495 53.95895,44.15495 h 579.02527 c 29.82824,0 53.95894,-19.74631 53.95894,-44.15495 V 134.6589 c 0,-24.31722 -24.01899,-44.15496 -53.84722,-44.06354 z M 632.8725,709.31322 c 29.82824,0 53.95894,-19.74631 53.95894,-44.15495 V 44.15495 C 686.83144,19.746315 662.58902,0 632.8725,0 H 247.11632 v 14.6269 c 0.22344,1.554108 0.33515,3.108216 0.33515,4.662324 V 140.32682 c 0,34.2818 -34.07345,62.25574 -76.07876,62.25574 H 23.46041 c -1.564027,0 -3.128054,-0.0914 -4.692082,-0.18283 H 0 v 462.75854 c 0,24.40864 24.242424,44.15495 53.958944,44.15495 z M 165.56347,297.65741 h 377.60089 c 14.07625,0 25.4713,9.32465 25.4713,20.84333 0,11.51869 -11.39505,20.84334 -25.4713,20.84334 H 165.56347 c -14.07625,0 -25.47131,-9.32465 -25.47131,-20.84334 0,-11.51868 11.39506,-20.84333 25.47131,-20.84333 z m 0,113.17564 h 377.60089 c 14.07625,0 25.4713,9.32465 25.4713,20.84333 0,11.51869 -11.39505,20.84333 -25.4713,20.84333 H 165.56347 c -14.07625,0 -25.47131,-9.32464 -25.47131,-20.84333 0,-11.51868 11.39506,-20.84333 25.47131,-20.84333 z m -25.58302,127.43686 c 0,-11.51868 11.39506,-20.84333 25.4713,-20.84333 H 354.2522 c 14.07624,0 25.4713,9.32465 25.4713,20.84333 0,11.51869 -11.50677,20.84334 -25.58302,20.84334 H 165.34004 c -13.85282,0 -25.35959,-9.32465 -25.35959,-20.84334 z M 23.46041,177.534 h 148.24745 c 24.68929,-0.18284 44.6865,-16.54668 44.90993,-36.75009 V 19.289224 c 0,-11.153011 -11.28334,-18.649297 -22.90183,-18.649297 -5.58581,0 -11.28334,1.645526 -15.97542,5.485087 L 7.2615556,145.72049 C -7.0381231,157.42201 3.1280547,177.534 23.46041,177.534 Z"
     fill="white"
     />
</svg>
