<svg  xmlns="http://www.w3.org/2000/svg" viewBox="0 0 448 448">
  <path
     d="m 238.78865,255.97164 c -1.36892,-0.17396 -3.47498,-0.24354 -6.31814,-0.24354 -4.56311,0 -9.05601,0.31313 -13.51383,0.9046 -4.4227,0.59146 -9.056,1.67001 -13.82971,3.20087 -4.77372,1.53084 -8.95071,3.51398 -12.53099,5.87985 -3.58031,2.40063 -6.52876,5.56672 -8.84542,9.533 -2.31665,3.9663 -3.47499,8.48926 -3.47499,13.49931 0,4.76651 1.01793,9.15029 3.01867,13.04702 2.03586,3.93148 4.66843,7.16713 7.89768,9.67217 3.22928,2.50502 6.98508,4.66212 11.23229,6.40172 4.24718,1.73959 8.56458,2.99211 12.91708,3.72275 4.35254,0.73061 8.70502,1.07855 13.12773,1.07855 4.98432,0 9.79313,-0.55667 14.39134,-1.67002 4.59821,-1.11334 8.88051,-2.78337 12.77669,-5.01004 3.9313,-2.22669 7.05527,-5.32318 9.44214,-9.35907 2.35174,-4.00107 3.54519,-8.66319 3.54519,-13.9516 0,-2.12232 -0.31592,-4.20982 -0.91263,-6.26254 -0.59672,-2.05274 -1.22853,-3.82712 -1.86035,-5.39276 -0.63182,-1.53085 -1.82523,-3.30524 -3.47498,-5.32318 -1.68483,-2.01794 -2.94847,-3.51399 -3.82599,-4.48818 -0.87752,-0.97417 -2.52725,-2.47022 -4.98432,-4.4186 -2.45706,-1.94834 -4.0366,-3.20086 -4.70349,-3.72274 -0.70205,-0.52186 -2.49217,-1.80917 -5.37044,-3.82712 -2.87827,-2.01793 -4.45781,-3.13126 -4.70353,-3.27045 z m 6.31817,-105.73292 c -2.66768,-5.32318 -6.28306,-9.74176 -10.84616,-13.25577 -4.56312,-3.51398 -9.61764,-5.25358 -15.12846,-5.25358 -3.6154,0 -7.16058,0.835 -10.67066,2.50502 -3.47497,1.67001 -6.35325,3.89671 -8.5997,6.71485 -3.9664,5.04484 -5.93205,11.86408 -5.93205,20.4925 0,3.9315 0.42121,8.07176 1.29873,12.49035 0.87754,4.38379 2.21136,8.80237 4.07168,13.18617 1.86036,4.38379 4.10681,8.35008 6.70428,11.82928 2.63257,3.51398 5.86184,6.36693 9.68782,8.59363 3.82601,2.22667 8.003,3.34004 12.46081,3.34004 3.19418,0 6.52876,-0.69585 10.00374,-2.12233 3.47497,-1.39167 6.31815,-3.27045 8.45931,-5.56672 4.56309,-4.76651 6.84463,-11.55094 6.84463,-20.35333 0,-5.04483 -0.73711,-10.4028 -2.21134,-16.0739 -1.40403,-5.67111 -3.47499,-11.16825 -6.14263,-16.52621 z"
     fill="#323232"
  />
  <path
     d="M 0,0 V 448.00001 H 448 V 0 Z m 315.23828,113.77669 c 0,0 -6.56387,7.93258 1.47423,22.40605 0,0 1.47424,4.55776 1.22853,7.48029 0,0 -2.63254,13.70804 0.0351,25.7461 0,0 3.12396,37.8189 0.17551,44.29023 0,0 -1.19343,8.66321 -9.68784,6.99318 0,0 -7.75729,0 -7.54668,-14.68223 0,0 -0.98283,-9.88091 0,-28.6686 0,0 1.47423,-14.92578 0.98282,-24.31963 0,0 -1.47423,-11.55095 0.49141,-15.65641 0,0 4.84392,-6.5061 3.89618,-16.38705 l -0.17548,-0.66103 -34.64452,26.92901 c 0.45632,0.76543 0.91264,1.49606 1.33384,2.26149 3.26437,5.98422 4.91411,12.80346 4.91411,20.4925 0,6.15819 -1.05302,11.69012 -3.15908,16.59578 -2.10603,4.90568 -4.66841,8.87197 -7.68706,11.89885 -3.01868,3.02692 -6.00224,5.81029 -8.98583,8.31531 -2.98356,2.50503 -5.51082,5.14922 -7.61687,7.86299 -2.10605,2.74859 -3.15907,5.53194 -3.15907,8.45446 0,3.06171 1.36893,6.08862 4.14189,9.01114 2.77295,2.95732 6.07244,5.84505 9.93353,8.698 3.8611,2.85296 7.7573,5.98423 11.68858,9.42865 3.9313,3.4096 7.26587,7.863 10.00374,13.32532 2.77298,5.46236 4.14189,11.51618 4.14189,18.19621 0,7.75864 -2.10604,15.16935 -6.31813,22.16254 -6.10756,10.40281 -15.12848,18.09185 -27.06276,22.99752 -11.93428,4.90568 -24.78118,7.37592 -38.57581,7.37592 -11.37267,0 -21.97312,-1.7744 -31.83644,-5.3232 -9.86331,-3.54878 -17.30468,-9.42862 -22.28902,-17.60475 -3.08886,-5.04484 -4.66839,-10.61157 -4.66839,-16.76975 0,-6.92361 1.93053,-13.32534 5.75654,-19.2052 3.82597,-5.87983 8.95071,-10.78552 15.30394,-14.71702 11.23227,-6.9932 28.6423,-11.27261 52.15986,-12.80347 -2.77297,-3.51397 -4.80882,-6.64526 -6.14266,-9.42863 -1.33382,-2.78336 -2.00075,-5.91464 -2.00075,-9.42862 0,-3.40962 0.91265,-7.028 2.70276,-10.8899 -3.96638,0.34792 -6.87976,0.52188 -8.7752,0.52188 -12.7416,0 -23.48246,-4.10547 -32.22256,-12.35118 -8.7401,-8.2457 -13.12771,-18.6833 -13.12771,-31.31282 0,-1.49603 0.0702,-2.9573 0.21059,-4.41857 h -48.75514 l 76.27412,-65.47858 h 128.01274 l -11.02165,8.55884 z"
     fill="#323232"
  />
</svg>
