<svg xmlns="http://www.w3.org/2000/svg" viewBox="0 0 512 512">
  <path
     d="m 512,365.99818 c 0,-22.85777 -12.578,-42.16222 -30,-49.43387 V 134.6923 L 512,120.21572 256,0 0,120.21572 256,240.4326 452,148.79085 v 167.77346 c -17.422,7.27165 -30,26.5761 -30,49.43387 0,20.92662 10.56,38.88981 25.701,47.37867 l -24.924,87.51377 28.447,11.10937 15.776,-55.39352 15.776,55.39352 28.447,-11.10937 -24.924,-87.51377 C 501.44,404.88916 512,386.92597 512,365.99818 Z"
     fill="white" />
  <path
     d="M 256,278.27023 121,214.82558 v 45.83726 c 0,50.04482 58.037,87.77945 135,87.77945 76.963,0 135,-37.73463 135,-87.77945 v -45.83726 z"
     fill="white" />
</svg>
