<svg   xmlns="http://www.w3.org/2000/svg" viewBox="0 0 800 800">
  <path
     d="m 76.123877,0.06005224 c -18.749723,0 -24.253373,5.85111296 -24.253373,25.05007976 V 474.64021 c 0,20.47889 5.410368,26.05574 25.279478,26.05574 H 724.06206 c 18.3766,0 24.25338,-6.12539 24.25338,-25.05008 V 25.110132 c 0,-19.0161188 -5.59693,-24.95865576 -24.34666,-24.95865576 -215.85502,-0.182848 -431.8966,-0.182848 -647.844903,-0.091424 z M 787.12083,533.33419 c -3.638,-0.91424 -7.46257,-0.73139 -11.10058,-0.73139 H 24.258972 c -3.35816,0 -6.902883,-0.18285 -10.16776,0.45712 -8.8618094,1.82847 -13.80576622,7.86243 -14.08561283,16.73052 -0.18656441,8.77667 4.29098143,15.4506 13.15279083,17.46192 4.290981,1.00566 8.768527,1.00566 13.15279,1.00566 116.60275,0.0914 233.11223,0 349.6217,0 -18.09675,24.31869 -36.28678,48.7288 -54.29024,73.13892 -31.9958,43.15196 -63.9916,86.2125 -95.80083,129.36446 -7.55586,10.14802 -5.41037,20.75317 4.38427,26.51286 9.04837,5.30257 20.89521,2.74271 28.2645,-6.58251 4.47755,-5.66826 8.67525,-11.51938 12.87295,-17.37049 42.53668,-57.32263 85.16665,-114.55383 128.44959,-172.97354 3.26488,4.20549 5.59694,7.40532 8.02227,10.51372 44.12249,59.24252 88.0584,118.66789 132.27417,177.91042 8.11555,10.87941 19.86911,14.07924 29.47717,8.5024 10.54089,-6.12539 12.12669,-17.0048 3.63801,-28.34133 C 523.59861,702.01082 473.87919,635.08871 424.0665,568.1666 c 116.60275,0 233.11222,0 349.80826,-0.0914 4.75739,0 9.60807,0 14.08561,-1.27993 8.20884,-2.28559 12.21997,-8.59382 12.03341,-17.18764 -0.18657,-8.41098 -4.57083,-14.35352 -12.87295,-16.27341 z"
     fill="white"/>
</svg>
